<?xml version="1.0" encoding="UTF-8"?>
<svg id="Calque_1" data-name="Calque 1" xmlns="http://www.w3.org/2000/svg" viewBox="0 0 802.43 114.93">
  <defs>
    <style>
      .cls-1 {
        fill: #fff;
      }

      .cls-1, .cls-2 {
        stroke-width: 0px;
      }

      .cls-2 {
        fill: #e6e787;
      }
    </style>
  </defs>
  <g>
    <path class="cls-1" d="M285.61,0h-70.73c-1.03,0-2.05.23-2.98.67-4.94,2.36-19.9,11.16-16.26,29.6,0,0,5.05,15.98,16.96,14.86l27.75.06s3.51,5.27-.98,8.77h-46.95l-13.59,18.08h71.61s14.43-3.5,16.96-22.28c2.09-15.57-9.3-20.73-13.26-22.05-.77-.26-1.58-.38-2.39-.38h-27.09s-7.57-2.94-.42-8.55h45.27S280.42,8.56,285.61,0Z"/>
    <path class="cls-1" d="M298.78,0h69.37s-8.27,14.15-15,18.22h-17.94l-12.33,36.3h25.37s-8.27,13.87-14.79,17.52h-69.02s11.21-16.82,15.98-17.94l16.82.14,13.03-36.3h-26.35S291.22,6.59,298.78,0Z"/>
    <path class="cls-1" d="M547.96,0h-58.98c-1.44,0-2.86.27-4.2.82-7.3,2.98-30.02,14.65-27.78,43.75,2.66,34.62,51.85,27.05,55.78,27.61,0,0,6.31-3.92,15.7-18.36l-31.51-.13c-2.52-.01-4.98-.77-7.06-2.2-4.01-2.76-9.35-8.42-8.1-18.55,0,0,2.29-11.06,11.94-14.29.86-.29,1.76-.43,2.66-.43l35.56-.14s13.03-12.47,15.98-18.08Z"/>
    <path class="cls-1" d="M733.88,0h68.54s-8.1,13.31-15.81,18.64h-16.96l-19.48,53.25h-26.35l20.18-53.95-25.93.28s9.7-14.55,15.1-18.03c.21-.13.45-.19.69-.19Z"/>
    <path class="cls-1" d="M426.59,0h-32.51s-29.01,6.45-35.74,33.77c0,0-9.11,36.58,25.09,37.56h31.11s23.68-7.57,31.53-26.77c0,0,17.24-39.24-19.48-44.57ZM423.33,35.25c-.04.23-.08.47-.13.71-.5,2.66-1.72,5.13-3.5,7.17-2.63,3.01-7.02,7.41-11.87,9.71-1.94.92-4.07,1.35-6.21,1.35h-4c-7.28,0-13.56-5.25-14.7-12.44-.19-1.18-.3-2.47-.31-3.89-.03-2.37.53-4.7,1.6-6.82,1.82-3.59,5.54-8.97,12.39-11.86,1.74-.74,3.63-1.06,5.52-1.06h6.54c9.52,0,16.27,7.72,14.67,17.11Z"/>
    <path class="cls-1" d="M602.75,0h-29.29c-15,1.4-25.51,14.15-25.51,14.15-25.09,30.13-12.61,58.02,12.89,58.36s31.25-.9,31.25-.9c15.42-2.94,33.35-15.84,36.86-44C632.46-.55,602.75,0,602.75,0ZM601.82,35.72c-.04.21-.08.43-.12.64-.49,2.45-1.64,4.72-3.28,6.6-2.61,3.01-7.08,7.54-12.02,9.88-1.94.92-4.07,1.35-6.21,1.35h-4.01c-7.27,0-13.54-5.24-14.68-12.43-.19-1.18-.3-2.48-.32-3.89-.03-2.37.53-4.7,1.6-6.82,1.82-3.59,5.54-8.97,12.39-11.87,1.74-.74,3.63-1.06,5.52-1.06h6.49c9.3,0,16.31,8.43,14.64,17.58Z"/>
    <path class="cls-1" d="M706.74,35.32C704.21-1.39,697.91,0,697.91,0h-22.94c-1.76,0-3.45.67-4.73,1.87-12.13,11.35-55.43,70.02-55.43,70.02h58.3l12.75-15.56,2.94,15.56h22.84l-4.9-36.58ZM657.97,54.31v-1.96l22.7-31.39c.13-.18.41-.11.44.11l4.89,33.25h-28.03Z"/>
    <path class="cls-1" d="M169.29,0h27.05s-18.28,67.42-41.11,71.19c-20.09,3.32-44.66,0-44.66,0,0,0-19.25-3.36-14.95-24.67C99.92,25.23,110.57,0,110.57,0h26.72l-14.01,41.11s-2.06,9.9,6.54,11.96c8.6,2.06,19.26.71,25.23-11.87C161.02,28.6,169.29,0,169.29,0Z"/>
    <path class="cls-1" d="M25.74,0h78.11s-10.65,17.73-16.75,18.64h-41.55l-7.15,20.46,12.47-12.19,31.6.07-19.62,19.06h-27.68l-9.11,26.35H0L25.74,0Z"/>
  </g>
  <rect class="cls-1" x="70.35" y="98.11" width="201.67" height="2.57"/>
  <rect class="cls-1" x="531.13" y="98.11" width="201.67" height="2.57"/>
  <path class="cls-2" d="M298.9,114.49l-7.11-23.5v23.5h-5.66v-28.82h10.51l5.06,17.25,5.32-17.25h10.55v28.82h-6.8v-23.5l-7.25,23.5h-4.62Z"/>
  <path class="cls-2" d="M338.59,114.93c-3.88,0-6.89-1.46-9.01-4.37-2.12-2.91-3.19-6.44-3.19-10.58s1.08-7.72,3.23-10.54c2.15-2.82,5.22-4.22,9.2-4.22s7.06,1.5,9.1,4.51c2.05,3.01,3.07,6.44,3.07,10.32,0,4.18-1.06,7.71-3.16,10.58-2.11,2.87-5.19,4.31-9.24,4.31ZM338.78,90.73c-3.54,0-5.31,3.11-5.31,9.33s1.77,9.35,5.31,9.35,5.14-3.11,5.14-9.33-1.71-9.35-5.14-9.35Z"/>
  <path class="cls-2" d="M366.66,103.06v11.42h-6.8v-28.82h12.67c2.34,0,4.21.27,5.63.81,1.42.54,2.59,1.54,3.52,2.99.93,1.45,1.39,3.06,1.39,4.83,0,3.46-1.67,5.94-5,7.45l5.32,12.74h-7.46l-4.43-11.42h-4.84ZM366.66,90.8v7.35h4.14c1.35,0,2.33-.09,2.95-.29s1.16-.61,1.64-1.27c.48-.66.72-1.4.72-2.25s-.24-1.52-.72-2.15c-.48-.63-1-1.02-1.56-1.17s-1.62-.22-3.17-.22h-3.99Z"/>
  <path class="cls-2" d="M402.99,114.93c-3.88,0-6.88-1.46-9.01-4.37-2.12-2.91-3.19-6.44-3.19-10.58s1.08-7.72,3.23-10.54c2.15-2.82,5.22-4.22,9.2-4.22s7.06,1.5,9.1,4.51c2.05,3.01,3.07,6.44,3.07,10.32,0,4.18-1.05,7.71-3.16,10.58-2.11,2.87-5.19,4.31-9.24,4.31ZM403.18,90.73c-3.54,0-5.31,3.11-5.31,9.33s1.77,9.35,5.31,9.35,5.14-3.11,5.14-9.33-1.71-9.35-5.14-9.35Z"/>
  <path class="cls-2" d="M447.51,96.39l-7.07.44c-.1-4.07-1.69-6.1-4.76-6.1-3.53,0-5.29,3.13-5.29,9.4,0,3.62.48,6.07,1.44,7.36s2.3,1.93,4.02,1.93c2.79,0,4.5-1.82,5.12-5.45l6.55.4c-.42,3.45-1.71,6.07-3.85,7.87s-4.78,2.69-7.89,2.69c-3.82,0-6.92-1.32-9.3-3.95-2.39-2.63-3.58-6.27-3.58-10.92,0-4.35,1.15-7.91,3.46-10.69,2.31-2.77,5.46-4.16,9.46-4.16,6.93,0,10.83,3.72,11.7,11.17Z"/>
  <path class="cls-2" d="M479.1,96.39l-7.07.44c-.1-4.07-1.69-6.1-4.76-6.1-3.53,0-5.29,3.13-5.29,9.4,0,3.62.48,6.07,1.44,7.36s2.3,1.93,4.02,1.93c2.79,0,4.5-1.82,5.12-5.45l6.55.4c-.42,3.45-1.71,6.07-3.85,7.87s-4.78,2.69-7.89,2.69c-3.82,0-6.92-1.32-9.3-3.95-2.39-2.63-3.58-6.27-3.58-10.92,0-4.35,1.15-7.91,3.46-10.69,2.31-2.77,5.46-4.16,9.46-4.16,6.93,0,10.83,3.72,11.7,11.17Z"/>
  <path class="cls-2" d="M498.26,114.93c-3.88,0-6.88-1.46-9.01-4.37s-3.19-6.44-3.19-10.58,1.08-7.72,3.23-10.54c2.15-2.82,5.22-4.22,9.2-4.22s7.06,1.5,9.1,4.51c2.05,3.01,3.07,6.44,3.07,10.32,0,4.18-1.06,7.71-3.17,10.58-2.11,2.87-5.19,4.31-9.24,4.31ZM498.45,90.73c-3.54,0-5.31,3.11-5.31,9.33s1.77,9.35,5.31,9.35,5.14-3.11,5.14-9.33-1.71-9.35-5.14-9.35Z"/>
</svg>